<?xml version="1.0" encoding="utf-8"?>
<!-- Generator: Adobe Illustrator 24.1.2, SVG Export Plug-In . SVG Version: 6.00 Build 0)  -->
<svg version="1.1" id="Layer_1" xmlns="http://www.w3.org/2000/svg" xmlns:xlink="http://www.w3.org/1999/xlink" x="0px" y="0px"
	 viewBox="0 0 746 596" style="enable-background:new 0 0 746 596;" xml:space="preserve">
<style type="text/css">
	.st0{display:none;}
	.st1{fill:#FFFFFF;stroke:#000000;stroke-width:5;}
	.st2{font-family:'SignPainter-HouseBrush';}
	.st3{font-size:71.9973px;}
	.st4{font-family:'SignPainter-HouseScriptSemibold';}
	.st5{font-size:120px;}
</style>
<g id="Layer_2_1_" class="st0">
</g>
<g id="Layer_1_1_">
	
		<image style="overflow:visible;enable-background:new    ;" width="500" height="500" xlink:href="6DA2765F60B0AD50.png"  transform="matrix(1 0 0 1 259 119)">
	</image>
	<path class="st1" d="M66,242l-8-60l70,44l24-59l52,49l43-67c0,0,23,64,26,63s108-54,108-54l-16,66l158-28.5L412,276l66,37l-64,39
		l40,31l-66,19l54,46l-85,38l-25,55l-41.5-34L221,551l16-50l-81,31l-35-24c0,0-73,41-72,38s17-76,17-76l-52-36l68-30l-63-48l74-18
		l-71-43l66-7l-62-34L66,242z"/>
	<text transform="matrix(0.9961 -8.780333e-02 8.780333e-02 0.9961 109.989 311.7869)" class="st2 st3">NOM NOM</text>
	<text transform="matrix(0.9961 -8.780333e-02 8.780333e-02 0.9961 110.1141 398.5073)" class="st2 st3">chomp.....</text>
	<text transform="matrix(0.9961 -8.780333e-02 8.780333e-02 0.9961 125.1608 483.9125)" class="st2 st3">nom nom</text>
</g>
<text transform="matrix(1 0 0 1 105.8262 103)" class="st4 st5">Eat da Burger</text>
</svg>
